<mxfile host="Electron" agent="Mozilla/5.0 (Macintosh; Intel Mac OS X 10_15_7) AppleWebKit/537.36 (KHTML, like Gecko) draw.io/26.0.9 Chrome/128.0.6613.186 Electron/32.2.5 Safari/537.36" version="26.0.9">
  <diagram id="RXcWit5hHr6IPpoLcjqJ" name="Main Schema">
    <mxGraphModel dx="1114" dy="820" grid="1" gridSize="10" guides="1" tooltips="1" connect="1" arrows="1" fold="1" page="1" pageScale="1" pageWidth="827" pageHeight="1169" math="0" shadow="0">
      <root>
        <mxCell id="0" />
        <mxCell id="1" parent="0" />
        <mxCell id="003" value="INTERNET" parent="0" />
        <mxCell id="INTERNET" value="" style="group;noLabel=1;" parent="003" vertex="1">
          <mxGeometry x="165" y="60" width="100" height="590" as="geometry" />
        </mxCell>
        <object label="Internet" id="0101">
          <mxCell style="verticalAlign=middle;align=center;vsdxID=5629;rotation=270;fillColor=#FDEBDD;gradientColor=none;shape=stencil(nZBLDsIwEENPM1sUMoILlHIBThCRQEaEpErD9/SkNUhVFyy6G9vPGsnETe9N50irvuR0cQ+xxRPvSGuJ3mUp9SJuiZtTyu6c0y1a6M5UUqvRcRad9UBrZfLxIG8Hb7viDWz0ruk+/HsiVYhe376C3gMNEifoL1wE/0EXgrP39RgXwVYSAgad5vMFq4X1uf0A);strokeColor=#9c4a09;spacingTop=-2;spacingBottom=-2;spacingLeft=-2;spacingRight=-2;labelBackgroundColor=none;rounded=1;html=1;whiteSpace=wrap;" parent="INTERNET" vertex="1">
            <mxGeometry x="-275" y="280" width="585" height="25" as="geometry" />
          </mxCell>
        </object>
        <mxCell id="004" value="WAN" parent="0" />
        <mxCell id="TRANSPORT-WAN" value="" style="group;noLabel=1;" parent="004" vertex="1">
          <mxGeometry x="270" y="60" width="100" height="590" as="geometry" />
        </mxCell>
        <object label="Транспортная сеть" id="0103">
          <mxCell style="verticalAlign=middle;align=center;vsdxID=5629;rotation=270;fillColor=#ffcc66;gradientColor=none;shape=stencil(nZBLDsIwEENPM1sUMoILlHIBThCRQEaEpErD9/SkNUhVFyy6G9vPGsnETe9N50irvuR0cQ+xxRPvSGuJ3mUp9SJuiZtTyu6c0y1a6M5UUqvRcRad9UBrZfLxIG8Hb7viDWz0ruk+/HsiVYhe376C3gMNEifoL1wE/0EXgrP39RgXwVYSAgad5vMFq4X1uf0A);strokeColor=#6a5628;spacingTop=-2;spacingBottom=-2;spacingLeft=-2;spacingRight=-2;labelBackgroundColor=none;rounded=1;html=1;whiteSpace=wrap;" parent="TRANSPORT-WAN" vertex="1">
            <mxGeometry x="-275" y="280" width="585" height="25" as="geometry" />
          </mxCell>
        </object>
        <mxCell id="98" value="Экосистема Сбер" parent="0" style="group;fontColor=none;noLabel=1;" visible="0" />
        <mxCell id="99" value="Сбербанк" parent="0" style="group;fontColor=none;noLabel=1;" visible="0" />
        <mxCell id="100" value="Connections" parent="0" />
        <object label="Сбербанк" schema="seaf.ta.services.network_segment" id="991">
          <mxCell style="rounded=0;whiteSpace=wrap;html=1;fontFamily=Helvetica;fontSize=12;fillColor=#d5e8d4;horizontal=1;labelPosition=center;verticalLabelPosition=middle;align=center;verticalAlign=top;fontStyle=1;strokeColor=#82b366;" vertex="1" parent="99">
            <mxGeometry x="830" y="30" width="195" height="630" as="geometry" />
          </mxCell>
        </object>
        <object label="Экосистема Сбер" schema="seaf.ta.services.network_segment" id="981">
          <mxCell style="rounded=0;whiteSpace=wrap;html=1;fontFamily=Helvetica;fontSize=12;fillColor=#dae8fc;horizontal=1;labelPosition=center;verticalLabelPosition=middle;align=center;verticalAlign=top;fontStyle=1;strokeColor=#6c8ebf;" vertex="1" parent="98">
            <mxGeometry x="1060" y="30" width="195" height="630" as="geometry" />
          </mxCell>
        </object>
      </root>
    </mxGraphModel>
  </diagram>
</mxfile>